<svg width="48" height="48" viewBox="0 0 48 48" fill="none" xmlns="http://www.w3.org/2000/svg">
<g clip-path="url(#clip0_934_742)">
<path d="M21.4456 45.8787H24.5592C24.8819 45.8787 25.144 45.6176 25.144 45.2949C25.144 44.9722 24.882 44.711 24.5592 44.711H21.4456C21.1227 44.711 20.8607 44.9722 20.8607 45.2949C20.8607 45.6176 21.1227 45.8787 21.4456 45.8787Z" fill="#1ACDB8" stroke="#1ACDB8" stroke-width="0.2"/>
<path d="M23.649 37.6061C23.4921 37.2705 23.0922 37.1258 22.756 37.2819C22.4197 37.4382 22.2737 37.837 22.4308 38.1727C22.5878 38.5083 22.9877 38.6531 23.3238 38.4969C23.6602 38.3406 23.8061 37.9418 23.649 37.6061Z" fill="#1ACDB8" stroke="#1ACDB8" stroke-width="0.2"/>
<path d="M18.3233 35.0319L18.3233 35.0319C18.1643 34.751 18.2636 34.3948 18.5448 34.2361L18.5449 34.236C18.8262 34.0778 19.1826 34.1765 19.3417 34.4572L19.3417 34.4572L22.3355 39.7448L24.7905 38.6038L21.7592 34.0941L21.8422 34.0384L21.7592 34.0941C21.5792 33.8262 21.6509 33.4635 21.9191 33.2839C21.9192 33.2839 21.9192 33.2838 21.9192 33.2838L21.9748 33.3669L18.3233 35.0319ZM18.3233 35.0319L21.5814 40.786L18.3233 35.0319Z" fill="#1ACDB8" stroke="#1ACDB8" stroke-width="0.2"/>
<path d="M37.4563 34.331C37.4563 36.8469 39.504 38.8934 42.021 38.8934C44.538 38.8934 46.5858 36.8469 46.5858 34.331C46.5858 31.815 44.538 29.7684 42.021 29.7684C39.504 29.7684 37.4563 31.815 37.4563 34.331ZM38.626 34.3311C38.626 32.4592 40.1491 30.9363 42.021 30.9363C43.893 30.9363 45.4161 32.4592 45.4161 34.3311C45.4161 36.2028 43.893 37.7258 42.021 37.7258C40.1491 37.7258 38.626 36.2027 38.626 34.3311Z" fill="#1ACDB8" stroke="#1ACDB8" stroke-width="0.2"/>
<path d="M19.02 6.46893C19.02 8.98489 21.0678 11.0314 23.5849 11.0314C26.1019 11.0314 28.1496 8.98489 28.1496 6.46893C28.1496 3.95298 26.1019 1.90647 23.5849 1.90647C21.0678 1.90647 19.02 3.95298 19.02 6.46893ZM20.1897 6.46903C20.1897 4.59726 21.7128 3.07434 23.5849 3.07434C25.4567 3.07434 26.9799 4.59726 26.9799 6.46903C26.9799 8.3408 25.4568 9.86372 23.5849 9.86372C21.7128 9.86372 20.1897 8.3408 20.1897 6.46903Z" fill="#1ACDB8" stroke="#1ACDB8" stroke-width="0.2"/>
<path d="M38.6001 42.5467H7.30798L7.30865 32.8397V32.8397C7.30865 32.5171 7.04662 32.2558 6.72375 32.2558C6.401 32.2558 6.13886 32.517 6.13885 32.8397C6.13885 32.8397 6.13885 32.8397 6.13885 32.8397L6.13819 42.5467H4.6442C4.321 42.5467 4.0593 42.8094 4.0593 43.1317C4.0593 45.8171 6.24813 48.0012 8.93828 48.0012H36.9708C39.6609 48.0012 41.8497 45.8171 41.8497 43.1305C41.8499 42.8079 41.5878 42.5467 41.2649 42.5467H39.7699L39.7701 39.9869C39.7701 39.6643 39.5081 39.403 39.1852 39.403C38.8624 39.403 38.6003 39.6642 38.6003 39.9869L38.6001 42.5467ZM36.9709 46.8335H8.93837C7.09202 46.8335 5.55624 45.4801 5.27516 43.7144H40.6343C40.3534 45.4795 38.8175 46.8335 36.9709 46.8335Z" fill="#1ACDB8" stroke="#1ACDB8" stroke-width="0.2"/>
<path d="M17.1391 27.8902L17.1391 27.8902C17.4314 27.7543 17.7795 27.8805 17.916 28.1729L17.1391 27.8902ZM17.1391 27.8902L16.6252 28.129C16.6252 28.129 16.6252 28.129 16.6252 28.129M17.1391 27.8902L16.6252 28.129M16.6252 28.129C16.0699 28.3869 16.2585 29.2423 16.8723 29.2423M16.6252 28.129L16.8723 29.2423M16.8723 29.2423C16.955 29.2423 17.0391 29.2247 17.119 29.1875L16.8723 29.2423Z" fill="#1ACDB8" stroke="#1ACDB8" stroke-width="0.2"/>
<path d="M17.1649 29.451C17.1649 29.451 17.1649 29.451 17.1649 29.451L17.6787 29.2122C17.6787 29.2122 17.6787 29.2122 17.6787 29.2122C17.9713 29.0761 18.3192 29.2024 18.4557 29.4949M17.1649 29.451L18.1302 30.18L18.1723 30.2707C18.4652 30.1348 18.5922 29.7873 18.4557 29.4949M17.1649 29.451C17.1649 29.451 17.1649 29.451 17.1648 29.451C16.6095 29.7089 16.7982 30.5643 17.412 30.5643C17.4947 30.5643 17.5788 30.5467 17.6586 30.5095L17.1649 29.451ZM18.4557 29.4949L18.3651 29.5372L18.4557 29.4949C18.4557 29.4949 18.4557 29.4949 18.4557 29.4949Z" fill="#1ACDB8" stroke="#1ACDB8" stroke-width="0.2"/>
<path d="M18.423 31.8058C18.3431 31.843 18.259 31.8605 18.1763 31.8605C17.5626 31.8605 17.3738 31.0052 17.9291 30.7473L17.9291 30.7473L18.4429 30.5084C18.4429 30.5084 18.4429 30.5084 18.4429 30.5084C18.7356 30.3723 19.0835 30.4987 19.2199 30.7911M18.423 31.8058L18.4229 31.8058L18.3808 31.7151L18.423 31.8058ZM18.423 31.8058L18.9367 31.567L18.8946 31.4763L18.9367 31.5669C19.2295 31.431 19.3564 31.0835 19.2199 30.7911M19.2199 30.7911C19.2199 30.7911 19.2199 30.7911 19.2199 30.7911L19.1293 30.8333L19.2199 30.7911Z" fill="#1ACDB8" stroke="#1ACDB8" stroke-width="0.2"/>
<path d="M6.76427 30.5568C7.48297 30.5568 8.1685 30.4139 8.79535 30.1568L8.81285 40.2637C8.81343 40.5861 9.07531 40.8466 9.39765 40.8466H9.39851H9.39869C9.72155 40.8461 9.98312 40.5844 9.98254 40.2617L9.96458 29.4963C11.2571 28.5343 12.1031 27.0059 12.1269 25.282H18.5093C17.7845 25.8799 17.0268 26.3659 16.3512 26.6799L14.4134 27.5805C12.7095 28.3722 11.9456 30.4506 12.7431 32.1551C13.5477 33.8752 15.6061 34.6215 17.3309 33.8197L19.2687 32.9192C20.2555 32.4607 21.5708 32.1245 22.8983 32.0144C24.2268 31.9042 25.5564 32.0214 26.5764 32.4594L31.5486 34.5947C31.5489 34.5948 31.5492 34.5949 31.5495 34.595C31.9681 34.7831 32.3708 34.7825 32.7093 34.6227C33.0466 34.4634 33.3079 34.152 33.4577 33.7412C33.7238 33.0115 33.7714 31.8076 33.5721 30.3219C33.3771 28.8679 32.9439 27.1318 32.2348 25.282H35.9517V40.2629C35.9517 40.5856 36.2137 40.8467 36.5366 40.8467C36.8594 40.8467 37.1215 40.5856 37.1215 40.2629V24.698C37.1215 24.3753 36.8594 24.1142 36.5366 24.1142H31.7555C31.5233 23.5825 31.2745 23.0586 31.0094 22.5426H37.8591C38.2683 22.5426 38.601 22.8748 38.601 23.2822L38.6006 25.8069C38.6006 26.1296 38.8626 26.3909 39.1854 26.3909H39.1855C39.5082 26.3909 39.7704 26.1297 39.7704 25.807L39.7708 23.2822C39.771 22.2301 38.9132 21.3748 37.8593 21.3748H30.3734C29.4744 19.8164 28.4519 18.403 27.395 17.2745C26.9511 16.8005 26.3125 16.1807 25.6453 15.7421C25.3118 15.5228 24.9667 15.3459 24.632 15.2568C24.2966 15.1675 23.965 15.1648 23.6662 15.3035L23.6662 15.3035C23.2784 15.4838 23.0705 15.8493 22.9589 16.219L22.9588 16.2191L21.408 21.3748H10.5013C9.53521 20.4368 8.21638 19.8578 6.76427 19.8578C3.80712 19.8578 1.40098 22.2572 1.40098 25.2073C1.40098 28.1574 3.80712 30.5568 6.76427 30.5568ZM14.9526 28.6171C15.3155 30.1053 15.9732 31.5091 16.8838 32.7427C16.8239 32.7701 16.7402 32.8056 16.638 32.8417C16.4187 32.9191 16.1169 32.9981 15.7837 33.0077C15.451 33.0172 15.0892 32.9574 14.7456 32.7594C14.4025 32.5618 14.0703 32.2223 13.8028 31.6603C13.2536 30.5063 13.8327 29.1634 14.9526 28.6171ZM16.7985 27.738C17.1604 27.5578 17.5581 27.356 17.7887 27.2267C18.1531 28.7622 18.8282 30.2039 19.7741 31.469C19.5265 31.5619 19.1161 31.7357 18.7453 31.8962C18.52 31.9937 18.3073 32.0871 18.151 32.1561L17.966 32.2381C17.0255 31.0229 16.3653 29.6119 16.0356 28.113L16.217 28.0247C16.3704 27.9497 16.5789 27.8473 16.7985 27.738ZM27.365 25.3588L27.365 25.3587C27.365 25.3587 27.365 25.3587 27.365 25.3586L27.3371 25.2991L27.3334 25.2911L27.3332 25.2907L27.3328 25.2899L27.3326 25.2894L27.3326 25.2894L27.3322 25.2885L27.332 25.288L27.3316 25.2873L27.3274 25.2796C27.3245 25.2787 27.3216 25.2779 27.3187 25.2772C27.1605 25.0441 26.852 24.9534 26.588 25.0761L26.588 25.0761L26.3972 25.1648L26.2188 24.7836L26.9808 24.4294C26.9808 24.4294 26.9808 24.4294 26.9808 24.4294C27.4855 24.1949 28.0869 24.4135 28.3218 24.9153C28.5537 25.411 28.33 26.0187 27.8342 26.2494C27.8341 26.2494 27.8341 26.2494 27.8341 26.2494L27.0706 26.6042L26.8921 26.2228L27.0817 26.1347L27.0817 26.1347C27.3459 26.0119 27.475 25.7171 27.3976 25.4459C27.3988 25.4432 27.4001 25.4405 27.4013 25.4377L27.3983 25.4302L27.398 25.4295L27.3978 25.4291L27.3974 25.4282L27.3973 25.4281L27.3971 25.4277L27.3967 25.4268L27.3965 25.4264L27.3928 25.4184L27.3651 25.3589C27.365 25.3588 27.365 25.3588 27.365 25.3588ZM32.2229 33.5867C32.2195 33.5868 32.2138 33.5868 32.2054 33.586C32.1838 33.584 32.1511 33.5773 32.1064 33.5615C32.0172 33.53 31.8877 33.465 31.7162 33.3427C31.3735 33.0983 30.8716 32.631 30.1994 31.7683C29.3525 30.6815 28.4573 29.2574 27.6014 27.6455L28.3278 27.308L28.2856 27.2174L28.3278 27.308C29.4024 26.8086 29.885 25.4969 29.3815 24.4212C28.8738 23.3359 27.5752 22.8648 26.4873 23.3709C26.4873 23.3709 26.4873 23.3709 26.4872 23.3709L25.7593 23.7092C25.0239 21.906 24.5316 20.3233 24.2619 19.0781C24.1246 18.4442 24.0454 17.8995 24.0209 17.4586C23.9961 17.015 24.0273 16.6862 24.1032 16.4782L24.1032 16.4782C24.1211 16.4289 24.1346 16.3981 24.1506 16.3784C24.1615 16.3651 24.172 16.3579 24.1963 16.3579C24.2519 16.3579 24.3469 16.377 24.4828 16.4325C24.617 16.4873 24.7851 16.5751 24.9853 16.7059C25.3857 16.9675 25.9098 17.3983 26.5408 18.0721L26.6138 18.0037L26.5408 18.0721C27.9673 19.5952 29.3383 21.6827 30.3991 23.95C31.3357 25.9517 31.9538 27.9546 32.273 29.633C32.4326 30.4722 32.5171 31.2288 32.5298 31.8625C32.5425 32.4982 32.4827 33.0026 32.359 33.3418C32.3239 33.4377 32.289 33.5014 32.2614 33.5411C32.2419 33.5691 32.2283 33.5819 32.2229 33.5867ZM32.227 33.5995L32.2639 33.6791L32.2262 33.5995C32.2262 33.5995 32.2262 33.5995 32.2263 33.5995C32.2265 33.5995 32.2268 33.5995 32.227 33.5995ZM6.76427 29.389C4.45169 29.389 2.57067 27.5127 2.57067 25.2073C2.57067 22.9019 4.45169 21.0256 6.76427 21.0256C9.07676 21.0256 10.9578 22.9019 10.9578 25.2073C10.9578 27.5127 9.07676 29.389 6.76427 29.389ZM19.7382 24.1141H12.0137C11.8963 23.5529 11.6898 23.0242 11.411 22.5425H20.8986C20.5886 23.0878 20.1888 23.6186 19.7382 24.1141ZM27.0388 31.3866C25.2989 30.6394 22.9687 30.6827 20.99 31.1277C19.8976 29.7917 19.1578 28.211 18.8328 26.5183C20.3116 25.3973 21.7257 23.8318 22.3702 22.1694C22.6314 21.4975 22.8298 20.792 23.0257 20.0954C23.0744 19.9223 23.1229 19.7498 23.1722 19.5785C23.642 21.5969 24.561 24.035 25.5709 26.1936C26.3877 27.9394 27.7352 30.4382 29.1233 32.2818L27.0388 31.3866Z" fill="#1ACDB8" stroke="#1ACDB8" stroke-width="0.2"/>
<path d="M31.1821 2.72125L31.1821 2.72127L31.1756 15.2772C31.1756 15.2772 31.1756 15.2772 31.1756 15.2772C31.1754 15.594 31.4429 15.8614 31.7605 15.8614H47.3776C47.7005 15.8614 47.9625 15.6002 47.9625 15.2775V11.4985C47.9625 11.3338 47.8895 11.1755 47.7797 11.059C47.6697 10.9425 47.5152 10.8602 47.3448 10.8602H32.3476L32.3514 3.30545H46.7926V7.53169V7.53172C46.7927 7.85437 47.0547 8.11553 47.3775 8.11553C47.7004 8.11553 47.9624 7.85439 47.9624 7.53169V2.72151C47.9624 2.39881 47.7004 2.13767 47.3775 2.13767H31.767C31.4442 2.13767 31.1823 2.39871 31.1821 2.72125ZM46.7927 12.0279V14.6935H32.3457L32.347 12.0279H46.7927Z" fill="#1ACDB8" stroke="#1ACDB8" stroke-width="0.2"/>
<path d="M33.4574 13.9349H34.4291C34.752 13.9349 35.014 13.6737 35.014 13.351C35.014 13.0283 34.752 12.7672 34.4291 12.7672H33.4574C33.1346 12.7672 32.8725 13.0283 32.8725 13.351C32.8725 13.6737 33.1346 13.9349 33.4574 13.9349Z" fill="#1ACDB8" stroke="#1ACDB8" stroke-width="0.2"/>
<path d="M45.794 12.7741C45.7501 12.4948 45.508 12.2815 45.2162 12.2815C44.9244 12.2815 44.6822 12.4948 44.6384 12.7741C44.3588 12.8178 44.1448 13.0592 44.1448 13.3509C44.1448 13.6426 44.3588 13.884 44.6384 13.9277C44.6822 14.207 44.9244 14.4203 45.2162 14.4203C45.508 14.4203 45.7501 14.207 45.794 13.9277C46.0735 13.8839 46.2876 13.6425 46.2876 13.3509C46.2876 13.0592 46.0735 12.8178 45.794 12.7741Z" fill="#1ACDB8" stroke="#1ACDB8" stroke-width="0.2"/>
<path d="M42.9975 12.7671H39.0635C38.8918 12.5523 38.6276 12.4139 38.3305 12.4139C38.0333 12.4139 37.769 12.5523 37.5973 12.7671H36.1215C35.7986 12.7671 35.5366 13.0282 35.5366 13.3509C35.5366 13.6736 35.7986 13.9348 36.1215 13.9348H37.5974C37.7691 14.1495 38.0333 14.288 38.3305 14.288C38.6276 14.288 38.8918 14.1495 39.0635 13.9348H42.9975C43.3204 13.9348 43.5824 13.6736 43.5824 13.3509C43.5824 13.0282 43.3204 12.7671 42.9975 12.7671Z" fill="#1ACDB8" stroke="#1ACDB8" stroke-width="0.2"/>
<path d="M40.5556 9.51926L40.5553 9.51988L40.5663 9.52414C40.9276 9.66329 41.2336 9.62593 41.4515 9.46858C41.6666 9.31326 41.7778 9.05373 41.7778 8.78397V5.36147C41.7778 4.74596 41.1005 4.33857 40.5558 4.62599L40.5558 4.62599L37.3134 6.33717C37.3133 6.33718 37.3133 6.33719 37.3133 6.33719C36.7315 6.64387 36.7324 7.5015 37.3132 7.80815L37.3132 7.80816L40.5556 9.51926ZM40.6081 5.91929V8.22606L38.4225 7.07267L40.6081 5.91929Z" fill="#1ACDB8" stroke="#1ACDB8" stroke-width="0.2"/>
<path d="M39.1861 28.4955C39.5849 28.4955 39.9085 28.1727 39.9085 27.7741C39.9085 27.3756 39.5849 27.0528 39.1861 27.0528C38.7873 27.0528 38.4637 27.3756 38.4637 27.7741C38.4637 28.1727 38.7873 28.4955 39.1861 28.4955Z" fill="#1ACDB8" stroke="#1ACDB8" stroke-width="0.2"/>
<path d="M47.3776 10.213C47.7764 10.213 48.1 9.8902 48.1 9.49167C48.1 9.09314 47.7764 8.77036 47.3776 8.77036C46.9788 8.77036 46.6552 9.09314 46.6552 9.49167C46.6552 9.8902 46.9788 10.213 47.3776 10.213Z" fill="#1ACDB8" stroke="#1ACDB8" stroke-width="0.2"/>
<path d="M4.76214 16.9338V16.9338V7.39851C4.76214 7.07581 4.50011 6.81467 4.17725 6.81467H0.484896C0.162034 6.81467 -0.1 7.07581 -0.1 7.39851V16.9338C-0.1 17.2565 0.162034 17.5177 0.484896 17.5177H4.17715C4.50002 17.5177 4.76203 17.2565 4.76214 16.9338ZM3.59235 7.98235V16.3499H1.0697V7.98235H3.59235Z" fill="#1ACDB8" stroke="#1ACDB8" stroke-width="0.2"/>
<path d="M16.2109 8.70572V8.70538C16.2121 8.36405 15.9267 8.07708 15.5843 8.07708H15.5841L9.32815 8.06412L9.32798 8.06412C9.29689 8.06401 9.26576 8.06147 9.23502 8.0565L9.23484 8.05648C8.867 7.99634 8.66658 7.81005 8.56347 7.65831C8.46035 7.50657 8.36107 7.25159 8.44117 6.88805C8.44118 6.88801 8.44119 6.88798 8.44119 6.88794L8.53885 6.90947C8.54432 6.88451 8.55181 6.86003 8.56122 6.83631L16.2109 8.70572ZM16.2109 8.70572C16.2109 9.04791 15.9317 9.32678 15.5882 9.32678H12.6978C12.3728 9.32678 12.1129 9.5979 12.1129 9.91849C12.1129 10.2412 12.3749 10.5023 12.6978 10.5023H14.8999C15.2476 10.5023 15.5303 10.7846 15.5303 11.1309C15.5303 11.473 15.2511 11.7519 14.9075 11.7519H12.5462C12.2181 11.7519 11.9496 12.0325 11.9624 12.3594C11.9746 12.6703 12.2362 12.9275 12.5505 12.9275H14.2194C14.5671 12.9275 14.8497 13.2098 14.8497 13.5561C14.8497 13.8982 14.5705 14.1772 14.2269 14.1772H12.1278C11.7303 14.1772 11.451 14.5765 11.5735 14.9473C11.651 15.1884 11.8758 15.3527 12.1303 15.3527H13.5387C13.8865 15.3527 14.1692 15.6351 14.1692 15.9814C14.1692 16.3236 13.8899 16.6025 13.5463 16.6025H7.33203C7.00926 16.6025 6.74723 16.8637 6.74723 17.1864C6.74723 17.509 7.00915 17.7702 7.33203 17.7702H13.5463C14.5347 17.7702 15.339 16.9679 15.339 15.9815C15.339 15.6658 15.257 15.3689 15.1131 15.1108M16.2109 8.70572L15.1131 15.1108M15.7937 12.6854C16.3343 12.3773 16.7001 11.7961 16.7001 11.1308C16.7001 10.8151 16.6181 10.5182 16.4742 10.2602C17.0147 9.95228 17.3805 9.37158 17.3806 8.70733C17.3806 8.70738 17.3806 8.70744 17.3806 8.70749L15.7937 12.6854ZM15.7937 12.6854C15.9376 12.9435 16.0195 13.2405 16.0195 13.5561C16.0195 14.2215 15.6537 14.8027 15.1131 15.1108M15.7937 12.6854L15.1131 15.1108M9.04673 5.05793C8.96272 5.44163 8.68715 6.24454 8.46823 6.79953L15.5852 6.90911L9.68302 6.89712C9.88841 6.34607 10.1043 5.69587 10.1894 5.30762L10.0917 5.2862L10.1894 5.30762C10.5522 3.65262 9.98127 1.80668 8.67611 0.366818C8.51433 0.188261 8.22343 0.0336972 7.94965 0.00385858C7.8112 -0.0112307 7.66776 0.00459431 7.54595 0.0753286C7.42129 0.147724 7.33113 0.270832 7.29058 0.445877L7.29058 0.445891C6.80584 2.54006 6.20024 4.21826 5.49324 5.43764L5.49322 5.43766C5.33144 5.71684 5.42703 6.07402 5.70665 6.23555L5.70668 6.23556C5.98603 6.39683 6.34385 6.30151 6.50567 6.02259L6.50568 6.02257C7.16378 4.88743 7.73226 3.41364 8.20151 1.6342C8.97879 2.7087 9.28889 3.9533 9.04674 5.05791L9.04673 5.05793Z" fill="#1ACDB8" stroke="#1ACDB8" stroke-width="0.2"/>
<path d="M2.33103 15.2493C2.76195 15.2493 3.11167 14.9007 3.11167 14.4702C3.11167 14.0397 2.76195 13.6911 2.33103 13.6911C1.90011 13.6911 1.55039 14.0397 1.55039 14.4702C1.55039 14.9007 1.90011 15.2493 2.33103 15.2493Z" fill="#1ACDB8" stroke="#1ACDB8" stroke-width="0.2"/>
<path d="M4.69683 24.2983L4.6968 24.2983C4.69403 24.4164 4.70298 24.6123 4.754 24.7749C4.80669 24.9429 4.88681 25.0299 5.00186 25.0299C5.11344 25.0299 5.19261 24.9439 5.24552 24.7722C5.2965 24.6068 5.30645 24.407 5.3065 24.2822L4.69683 24.2983ZM4.69683 24.2983V24.296M4.69683 24.2983V24.296M4.69683 24.296C4.69683 24.1463 4.71756 23.9486 4.77358 23.7921M4.69683 24.296L4.77358 23.7921M4.77358 23.7921C4.83211 23.6286 4.91033 23.555 5.00186 23.555M4.77358 23.7921L5.00186 23.555M5.00186 23.555C5.11256 23.555 5.18915 23.6309 5.24151 23.7849M5.00186 23.555L5.24151 23.7849M5.24151 23.7849C5.29326 23.9372 5.30649 24.1307 5.3065 24.2821L5.24151 23.7849ZM3.6622 24.318L3.66221 24.3188C3.66664 24.8664 3.82815 25.2744 4.07804 25.5466C4.32783 25.8186 4.65933 25.9474 4.98774 25.9474C5.32639 25.9474 5.6672 25.8134 5.9225 25.5306C6.17781 25.2477 6.34093 24.8237 6.34093 24.2543C6.34093 23.7711 6.22046 23.3674 5.99157 23.0824C5.76069 22.7949 5.42661 22.6374 5.02259 22.6374C4.61973 22.6374 4.27636 22.8148 4.03594 23.1163C3.79674 23.4162 3.66221 23.8347 3.6622 24.318Z" fill="#1ACDB8" stroke="#1ACDB8" stroke-width="0.2"/>
<path d="M7.83401 22.6375H7.77581L7.74706 22.6882L4.90853 27.6855L4.82368 27.8349H4.99548H5.78595H5.84415L5.8729 27.7843L8.71143 22.7869L8.79628 22.6375H8.62448H7.83401Z" fill="#1ACDB8" stroke="#1ACDB8" stroke-width="0.2"/>
<path d="M7.19627 26.1854L7.19626 26.1847C7.19626 25.6169 7.36036 25.1943 7.61708 24.9124C7.87373 24.6306 8.21611 24.4973 8.55607 24.4973C8.95815 24.4973 9.29056 24.655 9.52019 24.9425C9.74778 25.2275 9.86754 25.6311 9.8675 26.1144L7.19627 26.1854ZM7.19627 26.1854C7.20035 26.7308 7.36175 27.1372 7.61167 27.4082M7.19627 26.1854L7.61167 27.4082M7.61167 27.4082C7.86144 27.6791 8.19292 27.8073 8.52122 27.8073M7.61167 27.4082L8.52122 27.8073M8.52122 27.8073C8.85833 27.8073 9.19746 27.6732 9.45141 27.3903M8.52122 27.8073L9.45141 27.3903M9.45141 27.3903C9.70533 27.1074 9.8675 26.6836 9.8675 26.1144L9.45141 27.3903ZM8.22339 26.1569H8.2234V26.1558C8.2234 25.9618 8.25453 25.7658 8.31529 25.6224C8.37783 25.4747 8.4555 25.4148 8.53534 25.4148C8.64866 25.4148 8.72725 25.4995 8.77968 25.6653C8.83051 25.826 8.84046 26.0204 8.84046 26.142C8.84046 26.2668 8.83051 26.4666 8.77947 26.632C8.72651 26.8035 8.64725 26.8897 8.53534 26.8897C8.42214 26.8897 8.34133 26.8039 8.28671 26.6369C8.23384 26.4753 8.22201 26.2793 8.22339 26.1569Z" fill="#1ACDB8" stroke="#1ACDB8" stroke-width="0.2"/>
<path d="M42.8191 33.427L42.9207 33.485L42.9622 33.3756L43.1881 32.7801L43.2164 32.7054L43.1498 32.6613C42.9503 32.5291 42.7294 32.4446 42.4955 32.4063V31.9698V31.8698H42.3955H41.7918H41.6918V31.9698V32.4551C41.2249 32.6039 40.8856 32.9909 40.8856 33.491C40.8856 33.8134 41.0143 34.0502 41.2094 34.2295C41.4005 34.405 41.6538 34.5243 41.9041 34.6224C42.1255 34.7121 42.2378 34.7932 42.2951 34.8604C42.3482 34.9228 42.3592 34.9791 42.3592 35.0403C42.3592 35.125 42.3237 35.1936 42.2593 35.2436C42.1928 35.2951 42.0905 35.3301 41.957 35.3301C41.6699 35.3301 41.4304 35.2146 41.1804 35.0481L41.074 34.9773L41.0308 35.0975L40.8136 35.7026L40.7898 35.7688L40.8441 35.8136C41.0683 35.9983 41.3481 36.0945 41.6246 36.1332V36.6132V36.7132H41.7246H42.3283H42.4283V36.6132V36.0883C42.9603 35.9335 43.2741 35.5168 43.2741 35.0031C43.2741 34.6541 43.143 34.3992 42.9538 34.2105C42.7679 34.025 42.5288 33.9064 42.3149 33.8192C42.0681 33.7173 41.938 33.6441 41.8693 33.5823C41.8367 33.5531 41.8207 33.5288 41.812 33.5076C41.8031 33.4862 41.7989 33.4615 41.7989 33.4273C41.7989 33.3728 41.8181 33.3197 41.8627 33.2794C41.9077 33.2387 41.9893 33.2013 42.1317 33.2013C42.3837 33.2013 42.5876 33.2948 42.8191 33.427Z" fill="#1ACDB8" stroke="#1ACDB8" stroke-width="0.2"/>
<path d="M23.9469 6.04795C23.9462 6.0471 23.9456 6.04648 23.9451 6.04609C23.9421 6.04415 23.9376 6.04144 23.9361 6.04059L23.9329 6.03896L23.9289 6.03711L23.9273 6.03641L23.9212 6.03381C23.9018 6.02571 23.842 6.00105 23.7849 5.97763L23.7355 5.95739C23.538 5.87209 23.4282 5.808 23.3669 5.75298C23.3344 5.72373 23.3184 5.69941 23.3096 5.67827C23.3007 5.65683 23.2965 5.6322 23.2965 5.59797C23.2965 5.54342 23.3158 5.49033 23.3604 5.45002C23.4054 5.40934 23.487 5.37196 23.6294 5.37196C23.8814 5.37196 24.0853 5.46548 24.3168 5.59765L24.4184 5.65565L24.4599 5.54627L24.6858 4.95079L24.7141 4.87609L24.6475 4.83196C24.448 4.69974 24.2271 4.6153 23.9932 4.57698V4.1405V4.0405H23.8932H23.2895H23.1895V4.1405V4.62578C22.7226 4.77454 22.3833 5.16151 22.3833 5.66162C22.3833 5.98402 22.5119 6.22087 22.7071 6.40018C22.8981 6.57567 23.1515 6.69494 23.4018 6.79305C23.6232 6.88275 23.7355 6.96381 23.7928 7.03109C23.8459 7.09345 23.8569 7.14972 23.8569 7.21097C23.8569 7.29563 23.8214 7.36428 23.757 7.41424C23.6905 7.46579 23.5882 7.50073 23.4547 7.50073C23.1676 7.50073 22.928 7.38521 22.6781 7.21874L22.5717 7.14791L22.5285 7.26818L22.3113 7.87327L22.2875 7.93949L22.3418 7.98424C22.566 8.169 22.8458 8.26517 23.1223 8.30389V8.78383V8.88383H23.2223H23.826H23.926V8.78383V8.25893C24.458 8.10415 24.7718 7.68751 24.7718 7.17373L23.9469 6.04795ZM23.9469 6.04795C24.1225 6.12868 24.3038 6.23387 24.4516 6.38127C24.6407 6.56992 24.7718 6.82484 24.7718 7.17372L23.9469 6.04795Z" fill="#1ACDB8" stroke="#1ACDB8" stroke-width="0.2"/>
</g>
<defs>
<clipPath id="clip0_934_742">
<rect width="48" height="48" fill="white"/>
</clipPath>
</defs>
</svg>
