<svg width="68" height="68" viewBox="0 0 68 68" fill="none" xmlns="http://www.w3.org/2000/svg">
<path fill-rule="evenodd" clip-rule="evenodd" d="M23.3261 30.2005L18.0901 54.2839C17.8408 55.4314 16.7075 56.1595 15.5628 55.9102C14.4153 55.6609 13.6871 54.5275 13.9365 53.3829L19.1725 29.2995C19.4218 28.152 20.5551 27.4239 21.6998 27.6732C22.8473 27.9225 23.5755 29.0559 23.3261 30.2005Z" fill="#0A0B0B"/>
<path fill-rule="evenodd" clip-rule="evenodd" d="M48.1433 19.8335H55.2493C56.4223 19.8335 57.3743 20.7855 57.3743 21.9585C57.3743 23.1315 56.4223 24.0835 55.2493 24.0835H48.1433C46.9703 24.0835 46.0183 23.1315 46.0183 21.9585C46.0183 20.7855 46.9703 19.8335 48.1433 19.8335Z" fill="#0A0B0B"/>
<path fill-rule="evenodd" clip-rule="evenodd" d="M35.1865 45.9028C34.4413 46.4355 33.9993 47.294 33.9993 48.2092V51.0057C33.9993 51.9435 33.6225 52.8473 32.9566 53.5103C32.2936 54.1762 31.3955 54.5473 30.4576 54.5473C28.5026 54.5473 26.916 52.9607 26.916 51.0057C26.916 48.246 26.916 48.0023 26.916 45.4155C26.916 43.5852 27.8 41.8682 29.2903 40.8057C31.2935 39.372 34.0815 37.3802 35.6455 36.2638C36.3906 35.7312 36.8326 34.8727 36.8326 33.9575C36.8326 32.2008 36.8326 29.3052 36.8326 27.8347C36.8326 27.6363 36.7306 27.455 36.5635 27.3502C36.3963 27.2482 36.1895 27.2397 36.0138 27.3275C35.0533 27.8063 33.4581 28.6025 32.3616 29.1522C31.5768 29.546 30.707 29.75 29.8286 29.75H20.541C18.586 29.75 16.9993 28.1633 16.9993 26.2083C16.9993 25.2677 17.3733 24.3695 18.0363 23.7037C18.7021 23.0407 19.6003 22.6667 20.541 22.6667C22.6546 22.6667 25.233 22.6667 26.8281 22.6667C27.8141 22.6667 28.7831 22.4088 29.6388 21.9187C31.7865 20.6918 35.9826 18.2948 37.5948 17.374C38.0255 17.1275 38.51 17 39.003 17C39.5413 17 40.3063 17 41.0741 17C42.6381 17 43.9046 18.2665 43.9075 19.8333C43.9075 24.157 43.9131 32.3708 43.9131 36.7483C43.916 38.5787 43.032 40.2985 41.5416 41.3638C39.5356 42.7947 36.7505 44.7865 35.1865 45.9028Z" fill="#0A0B0B"/>
<path fill-rule="evenodd" clip-rule="evenodd" d="M44 37L44 42C44 43.2094 44.9346 46.536 45.1015 47.126C45.6253 48.9777 46.8417 53.2659 47.7199 56.3542C47.9829 57.2851 47.8662 58.2788 47.3941 59.1231C46.9221 59.9674 46.1359 60.587 45.2051 60.85C45.2024 60.8489 45.2014 60.8516 45.1988 60.8506C43.358 61.3695 41.4405 60.3339 40.8671 58.5085L37.1114 46.5717L35.9901 43.2094L44 37C39.7608 35.2557 40.2609 35.2557 44 37Z" fill="#0A0B0B"/>
<path d="M39.666 17.0001C36.5364 17.0001 33.9993 14.463 33.9993 11.3334C33.9993 8.2038 36.5364 5.66675 39.666 5.66675C42.7956 5.66675 45.3326 8.2038 45.3326 11.3334C45.3326 14.463 42.7956 17.0001 39.666 17.0001Z" fill="#0A0B0B"/>
<path fill-rule="evenodd" clip-rule="evenodd" d="M43.9047 19.8335H49.5827C51.0843 19.8335 52.5265 20.4313 53.589 21.4938C54.6515 22.5563 55.2493 23.9985 55.2493 25.5002V32.5835C55.2493 34.0852 54.6515 35.5273 53.589 36.5898C52.5265 37.6523 51.0843 38.2502 49.5827 38.2502H43.916L43.9047 19.8335Z" fill="#0A0B0B"/>
</svg>
