<svg width="48" height="48" viewBox="0 0 48 48" fill="none" xmlns="http://www.w3.org/2000/svg">
<g clip-path="url(#clip0_934_729)">
<path d="M4.81575 7.28032C5.41561 7.28032 5.9019 6.79403 5.9019 6.19416C5.9019 5.5943 5.41561 5.10801 4.81575 5.10801C4.21588 5.10801 3.72959 5.5943 3.72959 6.19416C3.72959 6.79403 4.21588 7.28032 4.81575 7.28032Z" fill="#1ACDB8" stroke="#1ACDB8" stroke-width="0.2"/>
<path d="M8.56587 7.28032C9.16574 7.28032 9.65202 6.79403 9.65202 6.19416C9.65202 5.5943 9.16574 5.10801 8.56587 5.10801C7.966 5.10801 7.47971 5.5943 7.47971 6.19416C7.47971 6.79403 7.966 7.28032 8.56587 7.28032Z" fill="#1ACDB8" stroke="#1ACDB8" stroke-width="0.2"/>
<path d="M12.3159 7.28032C12.9158 7.28032 13.4021 6.79403 13.4021 6.19416C13.4021 5.5943 12.9158 5.10801 12.3159 5.10801C11.7161 5.10801 11.2298 5.5943 11.2298 6.19416C11.2298 6.79403 11.7161 7.28032 12.3159 7.28032Z" fill="#1ACDB8" stroke="#1ACDB8" stroke-width="0.2"/>
<path d="M15.6552 27.4702C15.6552 29.198 15.9648 30.8774 16.557 32.4453H2.50762C1.93435 32.4453 1.46781 31.9787 1.46781 31.4055V10.0667H41.4361V17.027C41.4361 17.46 41.7871 17.8109 42.22 17.8109C42.653 17.8109 43.0039 17.46 43.0039 17.027V4.5296C43.0039 3.09165 41.8343 1.92197 40.3963 1.92197H14.168C13.735 1.92197 13.3841 2.27293 13.3841 2.70588C13.3841 3.13883 13.735 3.48979 14.168 3.48979H40.3963C40.9696 3.48979 41.4361 3.95633 41.4361 4.5296V8.49891H1.46781V4.5296C1.46781 3.95633 1.93435 3.48979 2.50762 3.48979H10.6686C11.1015 3.48979 11.4525 3.13883 11.4525 2.70588C11.4525 2.27293 11.1015 1.92197 10.6686 1.92197H2.50762C1.06968 1.92197 -0.1 3.09165 -0.1 4.5296V31.4054C-0.1 32.8433 1.06968 34.013 2.50762 34.013H17.2638C17.9125 35.2427 18.7484 36.3809 19.7583 37.3907C22.4079 40.0404 25.9314 41.5 29.6789 41.5C32.3694 41.5 34.9445 40.747 37.1639 39.3416L41.5612 43.7389C41.9391 44.1168 42.4453 44.3307 42.9675 44.3506C43.0984 44.7074 43.3055 45.0315 43.5801 45.3063C44.6074 46.3715 46.4634 46.3303 47.4313 45.2036C48.362 44.1694 48.3154 42.5314 47.3274 41.5494C47.0536 41.2771 46.7312 41.0717 46.3766 40.9416C46.3565 40.4195 46.1427 39.9132 45.7648 39.5354L41.4065 35.177C42.9008 32.91 43.7026 30.2527 43.7026 27.4702C43.7026 23.719 42.2453 20.1954 39.5995 17.5496C36.9498 14.8998 33.4263 13.4404 29.6789 13.4404C25.9315 13.4404 22.4079 14.8998 19.7583 17.5496C17.1124 20.1954 15.6552 23.7189 15.6552 27.4702ZM46.2655 44.1555L46.264 44.1572C45.8701 44.6153 45.1081 44.6353 44.6909 44.2002L44.6894 44.1988C44.5194 44.0287 44.4132 43.8134 44.3818 43.5754C44.3205 43.0111 43.7234 42.613 43.179 42.768C42.9936 42.816 42.8039 42.7645 42.6698 42.6304L38.456 38.4168C39.1813 37.834 39.8638 37.1644 40.4609 36.4488L44.6562 40.6441C44.7902 40.7781 44.8417 40.9677 44.7938 41.153C44.6393 41.6964 45.0354 42.2949 45.5997 42.356C45.8373 42.387 46.0522 42.4924 46.2221 42.6614L46.2221 42.6614C46.6258 43.0626 46.645 43.7341 46.2655 44.1555ZM20.8669 36.2822C18.517 33.9324 17.2231 30.8032 17.2231 27.4702C17.2231 24.1372 18.5171 21.0081 20.8669 18.6582C23.2208 16.3043 26.3498 15.0082 29.6789 15.0082C33.0079 15.0082 36.137 16.3043 38.4909 18.6582C40.8408 21.0081 42.1347 24.1372 42.1347 27.4702C42.1347 30.8032 40.8407 33.9324 38.4909 36.2822C36.137 38.6361 33.0079 39.9323 29.6789 39.9323C26.3499 39.9323 23.2207 38.6361 20.8669 36.2822Z" fill="#1ACDB8" stroke="#1ACDB8" stroke-width="0.2"/>
<path d="M37.6537 19.4955C35.5237 17.3655 32.6912 16.1922 29.679 16.1922L26.103 38.0665L26.0711 38.1613C26.0711 38.1613 26.0711 38.1613 26.0711 38.1613C26.4815 38.2995 26.9261 38.0787 27.0641 37.6684C27.2022 37.2581 26.9815 36.8135 26.5712 36.6754C25.1517 36.1976 23.8874 35.411 22.8129 34.3365C20.9787 32.5023 19.9688 30.0642 19.9688 27.4703C19.9688 24.8764 20.9788 22.4383 22.8129 20.6042C24.647 18.7701 27.0851 17.7602 29.679 17.7602C32.2729 17.7602 34.7109 18.7702 36.5451 20.6042C40.3311 24.3901 40.3311 30.5505 36.5451 34.3365C34.7109 36.1706 32.2729 37.1804 29.679 37.1804C29.2461 37.1804 28.8951 37.5314 28.8951 37.9643C28.8951 38.3973 29.2461 38.7482 29.679 38.7482C32.6913 38.7482 35.5237 37.575 37.6537 35.445C42.051 31.0476 42.051 23.8929 37.6537 19.4955Z" fill="#1ACDB8" stroke="#1ACDB8" stroke-width="0.2"/>
<path d="M30.0174 29.3609H28.5473V28.2541H29.8512C30.2841 28.2541 30.6351 27.9031 30.6351 27.4702C30.6351 27.0372 30.2841 26.6863 29.8512 26.6863H28.5473V25.5794H30.0174C30.4504 25.5794 30.8013 25.2284 30.8013 24.7955C30.8013 24.3625 30.4504 24.0116 30.0174 24.0116H27.7634C27.3304 24.0116 26.9795 24.3625 26.9795 24.7955V30.1449C26.9795 30.5779 27.3304 30.9289 27.7634 30.9289H30.0174H30.0174C30.4504 30.9287 30.8013 30.5778 30.8013 30.1449C30.8013 29.7119 30.4504 29.3609 30.0174 29.3609Z" fill="#1ACDB8" stroke="#1ACDB8" stroke-width="0.2"/>
<path d="M22.2295 28.8429L22.2295 28.8429C22.5352 29.1802 23.021 29.3856 23.53 29.3856C24.0138 29.3856 24.3235 29.0986 24.3655 28.8617L24.3655 28.8616C24.3908 28.7198 24.3108 28.5933 24.1657 28.48C24.0229 28.3685 23.8413 28.2902 23.7273 28.2481C23.7273 28.2481 23.7273 28.2481 23.7273 28.2481L23.7619 28.1543C22.9243 27.8454 22.1806 27.5143 22.1494 27.5004L22.2295 28.8429ZM22.2295 28.8429C21.9388 28.5221 21.4431 28.4977 21.1222 28.7883L21.1221 28.7884C20.8014 29.0792 20.777 29.5748 21.0677 29.8957L21.0677 29.8957C21.6694 30.5596 22.5897 30.9534 23.5299 30.9534C24.7121 30.9534 25.7197 30.1973 25.9091 29.1372L25.9091 29.1372C25.9804 28.7374 25.9254 28.2767 25.6724 27.8498C25.4191 27.4224 24.9715 27.036 24.2699 26.7772L22.2295 28.8429ZM22.738 25.9498C22.7431 25.9147 22.7588 25.8514 22.8075 25.7866C22.8553 25.7229 22.9393 25.6519 23.0909 25.6062L23.0909 25.6062C23.4382 25.5015 23.7772 25.5752 24.038 25.6822C24.2931 25.7869 24.4636 25.9198 24.4763 25.9299C24.8076 26.204 25.2987 26.16 25.576 25.8303L25.576 25.8302C25.8545 25.4989 25.8118 25.0043 25.4804 24.7257L25.4803 24.7256C25.4503 24.7005 25.124 24.4316 24.615 24.2255C24.1055 24.0193 23.407 23.8735 22.6387 24.105C21.856 24.3408 21.2962 24.9606 21.1861 25.727L22.738 25.9498ZM22.738 25.9498C22.7305 26.0025 22.729 26.111 22.8204 26.192L22.738 25.9498Z" fill="#1ACDB8" stroke="#1ACDB8" stroke-width="0.2"/>
<path d="M38.5316 27.4703C38.5316 25.5495 36.9691 23.9869 35.0482 23.9869C33.1275 23.9869 31.565 25.5494 31.565 27.4703C31.565 29.391 33.1275 30.9535 35.0482 30.9535C36.9691 30.9535 38.5316 29.391 38.5316 27.4703ZM33.1329 27.4703C33.1329 26.4142 33.9922 25.5547 35.0483 25.5547C36.1044 25.5547 36.9639 26.4141 36.9639 27.4703C36.9639 28.5263 36.1045 29.3857 35.0483 29.3857C33.9922 29.3857 33.1329 28.5263 33.1329 27.4703Z" fill="#1ACDB8" stroke="#1ACDB8" stroke-width="0.2"/>
<path d="M16.0432 17.9787C16.0432 14.3155 13.0631 11.3354 9.39991 11.3354C5.73671 11.3354 2.75663 14.3155 2.75663 17.9787C2.75663 21.6419 5.73671 24.622 9.39991 24.622C13.0631 24.622 16.0432 21.6419 16.0432 17.9787ZM13.1523 17.1948C13.0752 15.986 12.8201 14.848 12.4098 13.8962C13.462 14.6739 14.2035 15.8474 14.4133 17.1948H13.1523ZM7.76294 14.6624C8.00575 14.0528 8.30407 13.5851 8.616 13.2859V17.1948H7.21836C7.28897 16.2099 7.48923 15.3496 7.76294 14.6624ZM8.616 18.7626V22.6714C8.30407 22.3722 8.00575 21.9045 7.76295 21.2949C7.48926 20.6078 7.28902 19.7474 7.21845 18.7626H8.616ZM10.1838 22.6715V18.7626H11.5815C11.5109 19.7475 11.3106 20.6078 11.0369 21.295C10.7941 21.9046 10.4958 22.3723 10.1838 22.6715ZM10.1838 17.1948V13.2859C10.4958 13.5851 10.7941 14.0528 11.0369 14.6624C11.3106 15.3496 11.5109 16.2099 11.5815 17.1948H10.1838ZM4.38648 17.1948C4.59638 15.8474 5.33792 14.674 6.38999 13.8962C5.97973 14.848 5.72458 15.986 5.6475 17.1948H4.38648ZM5.6475 18.7626C5.72466 19.9714 5.97974 21.1094 6.39006 22.0612C5.33792 21.2835 4.59638 20.11 4.38648 18.7626H5.6475ZM13.1523 18.7626H14.4133C14.2035 20.1101 13.462 21.2835 12.4098 22.0612C12.8201 21.1094 13.0752 19.9714 13.1523 18.7626Z" fill="#1ACDB8" stroke="#1ACDB8" stroke-width="0.2"/>
<path d="M14.086 27.6262C14.086 27.1932 13.735 26.8423 13.3021 26.8423H4.2721C3.83916 26.8423 3.4882 27.1932 3.4882 27.6262C3.4882 28.0591 3.83915 28.4101 4.2721 28.4101H13.3021C13.7349 28.4101 14.086 28.0591 14.086 27.6262Z" fill="#1ACDB8" stroke="#1ACDB8" stroke-width="0.2"/>
<path d="M4.27198 29.768C3.83903 29.768 3.48807 30.119 3.48807 30.5519C3.48807 30.9849 3.83903 31.3359 4.27198 31.3359H7.04229C7.47524 31.3359 7.8262 30.9849 7.8262 30.5519C7.8262 30.119 7.47524 29.768 7.04229 29.768H4.27198Z" fill="#1ACDB8" stroke="#1ACDB8" stroke-width="0.2"/>
</g>
<defs>
<clipPath id="clip0_934_729">
<rect width="48" height="48" fill="white"/>
</clipPath>
</defs>
</svg>
